<svg version="1.2" xmlns="http://www.w3.org/2000/svg" viewBox="0 0 1920 1080" width="1920" height="1080">
	<title>software development</title>
	<style>
		tspan { white-space:pre } 
		.s0 { fill: #ffffff } 
		.s1 { fill: #011787 } 
		.s2 { fill: #fb5211 } 
		.t3 { font-size: 54px;line-height: 52px;fill: #011787;font-weight: 300;font-family: "Roundkey" } 
		.t4 { font-size: 18px;text-transform: uppercase;fill: #ffffff;font-weight: 800;font-family: "Montserrat-ExtraBold", "Montserrat" } 
		.t5 { font-size: 14px;line-height: 19px;fill: #011787;font-weight: 400;font-family: "Montserrat-Regular", "Montserrat" } 
		.t6 { font-size: 23px;text-transform: uppercase;fill: #ffffff;font-weight: 300;font-family: "Roundkey" } 
		.s7 { fill: none;stroke: #011787;stroke-linecap: round;stroke-miterlimit:100;stroke-width: 2 } 
		.t8 { font-size: 70px;text-transform: uppercase;fill: #011787;font-weight: bold;font-family: "Roundkey" } 
		.t9 { font-size: 98px;text-transform: uppercase;fill: #fb5211;font-weight: bold;font-family: "Roundkey" } 
		.t10 { font-size: 82px;text-transform: uppercase;fill: #011787;font-weight: bold;font-family: "Roundkey" } 
	</style>
	<g id="Background">
		<path id="BG" class="s0" d="m0 0h1920v1080h-1920z"/>
		<path id="Shape-02" class="s1" d="m1007.6 1080c-24.1-53.9-28.6-107.8-5.9-152.7 39.3-105.4 209.6-167.7 335.1-252.8 129-82.9 141.3-223.5 228.3-314.9 74.2-94 223.1-138.6 332.8-89.1q11.3 4.8 22.1 11v798.5z"/>
		<path id="Shape-01" class="s1" d="m267.8 54.3c-17.5 27.9-70.1 35.8-111.1 52.8-41.9 16.2-53.7 55.9-84.1 77-19.1 16-47.5 22.7-72.6 17.8v-201.9h272.2c7.1 20.6 6.5 40.4-4.4 54.3z"/>
	</g>
	<g id="Design-Element">
		<path id="Shape-03" fill-rule="evenodd" class="s1" d="m58.4 863.9v-3.2c0-0.9-0.7-1.7-1.6-1.7-0.9 0-1.7 0.8-1.7 1.7v3.2h-3.2c-0.9 0-1.7 0.8-1.7 1.7 0 0.9 0.8 1.6 1.7 1.6h3.2v3.3c0 0.9 0.8 1.6 1.7 1.6 0.9 0 1.6-0.7 1.6-1.6v-3.3h3.3c0.9 0 1.6-0.7 1.6-1.6 0-0.9-0.7-1.7-1.6-1.7zm12.8 9.6c-0.9 0-1.6 0.7-1.6 1.6v3.3h-3.3c-0.9 0-1.7 0.7-1.7 1.6 0 0.9 0.8 1.6 1.7 1.6h3.3v3.3c0 0.9 0.7 1.7 1.6 1.7 0.9 0 1.6-0.8 1.6-1.7v-3.3h3.3c0.9 0 1.6-0.7 1.6-1.6 0-0.9-0.7-1.6-1.6-1.6h-3.3v-3.3c0-0.9-0.7-1.6-1.6-1.6zm14.4 14.4c-0.9 0-1.6 0.7-1.6 1.6v3.3h-3.3c-0.9 0-1.6 0.7-1.6 1.6 0 0.9 0.7 1.7 1.6 1.7h3.3v3.3c0 0.9 0.7 1.6 1.6 1.6 0.9 0 1.7-0.7 1.7-1.6v-3.3h3.2c0.9 0 1.7-0.8 1.7-1.7 0-0.9-0.8-1.6-1.7-1.6h-3.2v-3.3c0-0.9-0.8-1.6-1.7-1.6zm14.5 14.4c-0.9 0-1.7 0.8-1.7 1.7v3.2h-3.2c-0.9 0-1.7 0.8-1.7 1.7 0 0.9 0.8 1.6 1.7 1.6h3.2v3.3c0 0.9 0.8 1.6 1.7 1.6 0.9 0 1.6-0.7 1.6-1.6v-3.3h3.3c0.9 0 1.6-0.7 1.6-1.6 0-0.9-0.7-1.7-1.6-1.7h-3.3v-3.2c0-0.9-0.7-1.7-1.6-1.7zm14.4 14.5c-0.9 0-1.6 0.7-1.6 1.6v3.3h-3.3c-0.9 0-1.6 0.7-1.6 1.6 0 0.9 0.7 1.6 1.6 1.6h3.3v3.3c0 0.9 0.7 1.7 1.6 1.7 0.9 0 1.6-0.8 1.6-1.7v-3.3h3.3c0.9 0 1.7-0.7 1.7-1.6 0-0.9-0.8-1.6-1.7-1.6h-3.3v-3.3c0-0.9-0.7-1.6-1.6-1.6zm14.4 14.4c-0.9 0-1.6 0.7-1.6 1.6v3.3h-3.3c-0.9 0-1.6 0.7-1.6 1.6 0 1 0.7 1.7 1.6 1.7h3.3v3.3c0 0.9 0.7 1.6 1.6 1.6 0.9 0 1.7-0.7 1.7-1.6v-3.3h3.3c0.9 0 1.6-0.7 1.6-1.7 0-0.9-0.7-1.6-1.6-1.6h-3.3v-3.3c0-0.9-0.8-1.6-1.7-1.6zm-72.1-43.3c-0.9 0-1.7 0.7-1.7 1.6v3.3h-3.3c-0.9 0-1.6 0.7-1.6 1.6 0 0.9 0.7 1.7 1.6 1.7h3.3v3.3c0 0.9 0.8 1.6 1.7 1.6 0.9 0 1.6-0.7 1.6-1.6v-3.3h3.3c0.9 0 1.6-0.8 1.6-1.7 0-0.9-0.7-1.6-1.6-1.6h-3.3v-3.3c0-0.9-0.7-1.6-1.6-1.6zm14.4 14.4c-0.9 0-1.6 0.8-1.6 1.7v3.2h-3.3c-0.9 0-1.7 0.8-1.7 1.7 0 0.9 0.8 1.6 1.7 1.6h3.3v3.3c0 0.9 0.7 1.6 1.6 1.6 0.9 0 1.6-0.7 1.6-1.6v-3.3h3.3c0.9 0 1.6-0.7 1.6-1.6 0-0.9-0.7-1.7-1.6-1.7h-3.3v-3.2c0-0.9-0.7-1.7-1.6-1.7zm14.4 14.5c-0.9 0-1.6 0.7-1.6 1.6v3.3h-3.3c-0.9 0-1.6 0.7-1.6 1.6 0 0.9 0.7 1.6 1.6 1.6h3.3v3.3c0 0.9 0.7 1.7 1.6 1.7 0.9 0 1.7-0.8 1.7-1.7v-3.3h3.2c0.9 0 1.7-0.7 1.7-1.6 0-0.9-0.8-1.6-1.7-1.6h-3.2v-3.3c0-0.9-0.8-1.6-1.7-1.6zm14.5 14.4c-0.9 0-1.7 0.7-1.7 1.6v3.3h-3.2c-0.9 0-1.7 0.7-1.7 1.6 0 1 0.8 1.7 1.7 1.7h3.2v3.3c0 0.9 0.8 1.6 1.7 1.6 0.9 0 1.6-0.7 1.6-1.6v-3.3h3.3c0.9 0 1.6-0.7 1.6-1.7 0-0.9-0.7-1.6-1.6-1.6h-3.3v-3.3c0-0.9-0.7-1.6-1.6-1.6zm14.4 14.4c-0.9 0-1.6 0.8-1.6 1.7v3.2h-3.3c-0.9 0-1.6 0.8-1.6 1.7 0 0.9 0.7 1.6 1.6 1.6h3.3v3.3c0 0.9 0.7 1.6 1.6 1.6 0.9 0 1.6-0.7 1.6-1.6v-3.3h3.3c0.9 0 1.7-0.7 1.7-1.6 0-0.9-0.8-1.7-1.7-1.7h-3.3v-3.2c0-0.9-0.7-1.7-1.6-1.7zm-57.7-28.8c-0.9 0-1.7 0.7-1.7 1.6v3.3h-3.3c-0.9 0-1.6 0.7-1.6 1.6 0 0.9 0.7 1.6 1.6 1.6h3.3v3.3c0 0.9 0.8 1.7 1.7 1.7 0.9 0 1.6-0.8 1.6-1.7v-3.3h3.3c0.9 0 1.6-0.7 1.6-1.6 0-0.9-0.7-1.6-1.6-1.6h-3.3v-3.3c0-0.9-0.7-1.6-1.6-1.6zm14.4 14.4c-0.9 0-1.6 0.7-1.6 1.6v3.3h-3.3c-0.9 0-1.7 0.7-1.7 1.6 0 1 0.8 1.7 1.7 1.7h3.3v3.3c0 0.9 0.7 1.6 1.6 1.6 0.9 0 1.6-0.7 1.6-1.6v-3.3h3.3c0.9 0 1.6-0.7 1.6-1.7 0-0.9-0.7-1.6-1.6-1.6h-3.3v-3.3c0-0.9-0.7-1.6-1.6-1.6zm14.4 14.4c-0.9 0-1.6 0.8-1.6 1.7v3.2h-3.3c-0.9 0-1.6 0.8-1.6 1.7 0 0.9 0.7 1.6 1.6 1.6h3.3v3.3c0 0.9 0.7 1.6 1.6 1.6 0.9 0 1.7-0.7 1.7-1.6v-3.3h3.2c0.9 0 1.7-0.7 1.7-1.6 0-0.9-0.8-1.7-1.7-1.7h-3.2v-3.2c0-0.9-0.8-1.7-1.7-1.7zm14.5 14.5c-0.9 0-1.7 0.7-1.7 1.6v3.3h-3.2c-0.9 0-1.7 0.7-1.7 1.6 0 0.9 0.8 1.7 1.7 1.7h3.2v3.2c0 0.9 0.8 1.7 1.7 1.7 0.9 0 1.6-0.8 1.6-1.7v-3.2h3.3c0.9 0 1.6-0.8 1.6-1.7 0-0.9-0.7-1.6-1.6-1.6h-3.3v-3.3c0-0.9-0.7-1.6-1.6-1.6zm-43.3-14.5c-0.9 0-1.7 0.8-1.7 1.7v3.2h-3.3c-0.9 0-1.6 0.8-1.6 1.7 0 0.9 0.7 1.6 1.6 1.6h3.3v3.3c0 0.9 0.8 1.6 1.7 1.6 0.9 0 1.6-0.7 1.6-1.6v-3.3h3.3c0.9 0 1.6-0.7 1.6-1.6 0-0.9-0.7-1.7-1.6-1.7h-3.3v-3.2c0-0.9-0.7-1.7-1.6-1.7zm14.4 14.5c-0.9 0-1.6 0.7-1.6 1.6v3.3h-3.3c-0.9 0-1.7 0.7-1.7 1.6 0 0.9 0.8 1.7 1.7 1.7h3.3v3.2c0 0.9 0.7 1.7 1.6 1.7 0.9 0 1.6-0.8 1.6-1.7v-3.2h3.3c0.9 0 1.6-0.8 1.6-1.7 0-0.9-0.7-1.6-1.6-1.6h-3.3v-3.3c0-0.9-0.7-1.6-1.6-1.6zm14.4 14.4c-0.9 0-1.6 0.7-1.6 1.6v3.3h-3.3c-0.9 0-1.6 0.8-1.6 1.7 0 0.9 0.7 1.6 1.6 1.6h3.3v3.3c0 0.9 0.7 1.6 1.6 1.6 0.9 0 1.7-0.7 1.7-1.6v-3.3h3.2c0.9 0 1.7-0.7 1.7-1.6 0-0.9-0.8-1.7-1.7-1.7h-3.2v-3.3c0-0.9-0.8-1.6-1.7-1.6zm-28.8 0c-0.9 0-1.7 0.7-1.7 1.6v3.3h-3.3c-0.9 0-1.6 0.8-1.6 1.7 0 0.9 0.7 1.6 1.6 1.6h3.3v3.3c0 0.9 0.8 1.6 1.7 1.6 0.9 0 1.6-0.7 1.6-1.6v-3.3h3.3c0.9 0 1.6-0.7 1.6-1.6 0-0.9-0.7-1.7-1.6-1.7h-3.3v-3.3c0-0.9-0.7-1.6-1.6-1.6zm14.4 14.4c-0.9 0-1.6 0.8-1.6 1.7v3.3h-3.3c-0.9 0-1.7 0.7-1.7 1.6 0 0.9 0.8 1.6 1.7 1.6h3.3v3.3c0 0.9 0.7 1.6 1.6 1.6 0.9 0 1.6-0.7 1.6-1.6v-3.3h3.3c0.9 0 1.6-0.7 1.6-1.6 0-0.9-0.7-1.6-1.6-1.6h-3.3v-3.3c0-0.9-0.7-1.7-1.6-1.7zm-14.4 14.5c-0.9 0-1.7 0.7-1.7 1.6v3.3h-3.3c-0.9 0-1.6 0.7-1.6 1.6 0 0.9 0.7 1.7 1.6 1.7h3.3v3.2c0 0.9 0.8 1.7 1.7 1.7 0.9 0 1.6-0.8 1.6-1.7v-3.2h3.3c0.9 0 1.6-0.8 1.6-1.7 0-0.9-0.7-1.6-1.6-1.6h-3.3v-3.3c0-0.9-0.7-1.6-1.6-1.6z"/>
		<path id="Shape-02" fill-rule="evenodd" class="s2" d="m1700.7 985.1c2.9 0 5.2-2.3 5.2-5.1 0-2.8-2.3-5.1-5.2-5.1-2.8 0-5.1 2.3-5.1 5.1 0 2.8 2.3 5.1 5.1 5.1zm0-30.8c2.9 0 5.2-2.3 5.2-5.1 0-2.8-2.3-5.1-5.2-5.1-2.8 0-5.1 2.3-5.1 5.1 0 2.8 2.3 5.1 5.1 5.1zm0-30.8c2.9 0 5.2-2.3 5.2-5.1 0-2.9-2.3-5.2-5.2-5.2-2.8 0-5.1 2.3-5.1 5.2 0 2.8 2.3 5.1 5.1 5.1zm30.8 92.4c2.9 0 5.2-2.3 5.2-5.1 0-2.8-2.3-5.1-5.2-5.1-2.8 0-5.1 2.3-5.1 5.1 0 2.8 2.3 5.1 5.1 5.1zm0-30.8c2.9 0 5.2-2.3 5.2-5.1 0-2.8-2.3-5.1-5.2-5.1-2.8 0-5.1 2.3-5.1 5.1 0 2.8 2.3 5.1 5.1 5.1zm0-30.8c2.9 0 5.2-2.3 5.2-5.1 0-2.8-2.3-5.1-5.2-5.1-2.8 0-5.1 2.3-5.1 5.1 0 2.8 2.3 5.1 5.1 5.1zm0-30.8c2.9 0 5.2-2.3 5.2-5.1 0-2.9-2.3-5.2-5.2-5.2-2.8 0-5.1 2.3-5.1 5.2 0 2.8 2.3 5.1 5.1 5.1zm30.9 92.4c2.8 0 5.1-2.3 5.1-5.1 0-2.8-2.3-5.1-5.1-5.1-2.9 0-5.2 2.3-5.2 5.1 0 2.8 2.3 5.1 5.2 5.1zm0-30.8c2.8 0 5.1-2.3 5.1-5.1 0-2.8-2.3-5.1-5.1-5.1-2.9 0-5.2 2.3-5.2 5.1 0 2.8 2.3 5.1 5.2 5.1zm0-30.8c2.8 0 5.1-2.3 5.1-5.1 0-2.8-2.3-5.1-5.1-5.1-2.9 0-5.2 2.3-5.2 5.1 0 2.8 2.3 5.1 5.2 5.1zm0-30.8c2.8 0 5.1-2.3 5.1-5.1 0-2.9-2.3-5.2-5.1-5.2-2.9 0-5.2 2.3-5.2 5.2 0 2.8 2.3 5.1 5.2 5.1zm30.8 92.4c2.8 0 5.1-2.3 5.1-5.1 0-2.8-2.3-5.1-5.1-5.1-2.9 0-5.2 2.3-5.2 5.1 0 2.8 2.3 5.1 5.2 5.1zm0-30.8c2.8 0 5.1-2.3 5.1-5.1 0-2.8-2.3-5.1-5.1-5.1-2.9 0-5.2 2.3-5.2 5.1 0 2.8 2.3 5.1 5.2 5.1zm0-30.8c2.8 0 5.1-2.3 5.1-5.1 0-2.8-2.3-5.1-5.1-5.1-2.9 0-5.2 2.3-5.2 5.1 0 2.8 2.3 5.1 5.2 5.1zm0-30.8c2.8 0 5.1-2.3 5.1-5.1 0-2.9-2.3-5.2-5.1-5.2-2.9 0-5.2 2.3-5.2 5.2 0 2.8 2.3 5.1 5.2 5.1zm30.8 92.4c2.8 0 5.1-2.3 5.1-5.1 0-2.8-2.3-5.1-5.1-5.1-2.9 0-5.2 2.3-5.2 5.1 0 2.8 2.3 5.1 5.2 5.1zm0-30.8c2.8 0 5.1-2.3 5.1-5.1 0-2.8-2.3-5.1-5.1-5.1-2.9 0-5.2 2.3-5.2 5.1 0 2.8 2.3 5.1 5.2 5.1zm0-30.8c2.8 0 5.1-2.3 5.1-5.1 0-2.8-2.3-5.1-5.1-5.1-2.9 0-5.2 2.3-5.2 5.1 0 2.8 2.3 5.1 5.2 5.1zm0-30.8c2.8 0 5.1-2.3 5.1-5.1 0-2.9-2.3-5.2-5.1-5.2-2.9 0-5.2 2.3-5.2 5.2 0 2.8 2.3 5.1 5.2 5.1zm30.8 92.4c2.8 0 5.1-2.3 5.1-5.1 0-2.8-2.3-5.1-5.1-5.1-2.9 0-5.2 2.3-5.2 5.1 0 2.8 2.3 5.1 5.2 5.1zm0-30.8c2.8 0 5.1-2.3 5.1-5.1 0-2.8-2.3-5.1-5.1-5.1-2.9 0-5.2 2.3-5.2 5.1 0 2.8 2.3 5.1 5.2 5.1zm0-30.8c2.8 0 5.1-2.3 5.1-5.1 0-2.8-2.3-5.1-5.1-5.1-2.9 0-5.2 2.3-5.2 5.1 0 2.8 2.3 5.1 5.2 5.1zm0-30.8c2.8 0 5.1-2.3 5.1-5.1 0-2.9-2.3-5.2-5.1-5.2-2.9 0-5.2 2.3-5.2 5.2 0 2.8 2.3 5.1 5.2 5.1zm-154.1 82.2c-2.8 0-5.1 2.3-5.1 5.1 0 2.8 2.3 5.1 5.1 5.1 2.9 0 5.2-2.3 5.2-5.1 0-2.8-2.3-5.1-5.2-5.1z"/>
		<path id="Shape-02 copy" fill-rule="evenodd" class="s2" d="m1700.7 867.1c2.9 0 5.2-2.3 5.2-5.1 0-2.8-2.3-5.1-5.2-5.1-2.8 0-5.1 2.3-5.1 5.1 0 2.8 2.3 5.1 5.1 5.1zm0-30.8c2.9 0 5.2-2.3 5.2-5.1 0-2.8-2.3-5.1-5.2-5.1-2.8 0-5.1 2.3-5.1 5.1 0 2.8 2.3 5.1 5.1 5.1zm0-30.8c2.9 0 5.2-2.3 5.2-5.1 0-2.9-2.3-5.2-5.2-5.2-2.8 0-5.1 2.3-5.1 5.2 0 2.8 2.3 5.1 5.1 5.1zm30.8 92.4c2.9 0 5.2-2.3 5.2-5.1 0-2.8-2.3-5.1-5.2-5.1-2.8 0-5.1 2.3-5.1 5.1 0 2.8 2.3 5.1 5.1 5.1zm0-30.8c2.9 0 5.2-2.3 5.2-5.1 0-2.8-2.3-5.1-5.2-5.1-2.8 0-5.1 2.3-5.1 5.1 0 2.8 2.3 5.1 5.1 5.1zm0-30.8c2.9 0 5.2-2.3 5.2-5.1 0-2.8-2.3-5.1-5.2-5.1-2.8 0-5.1 2.3-5.1 5.1 0 2.8 2.3 5.1 5.1 5.1zm0-30.8c2.9 0 5.2-2.3 5.2-5.1 0-2.9-2.3-5.2-5.2-5.2-2.8 0-5.1 2.3-5.1 5.2 0 2.8 2.3 5.1 5.1 5.1zm30.9 92.4c2.8 0 5.1-2.3 5.1-5.1 0-2.8-2.3-5.1-5.1-5.1-2.9 0-5.2 2.3-5.2 5.1 0 2.8 2.3 5.1 5.2 5.1zm0-30.8c2.8 0 5.1-2.3 5.1-5.1 0-2.8-2.3-5.1-5.1-5.1-2.9 0-5.2 2.3-5.2 5.1 0 2.8 2.3 5.1 5.2 5.1zm0-30.8c2.8 0 5.1-2.3 5.1-5.1 0-2.8-2.3-5.1-5.1-5.1-2.9 0-5.2 2.3-5.2 5.1 0 2.8 2.3 5.1 5.2 5.1zm0-30.8c2.8 0 5.1-2.3 5.1-5.1 0-2.9-2.3-5.2-5.1-5.2-2.9 0-5.2 2.3-5.2 5.2 0 2.8 2.3 5.1 5.2 5.1zm30.8 92.4c2.8 0 5.1-2.3 5.1-5.1 0-2.8-2.3-5.1-5.1-5.1-2.9 0-5.2 2.3-5.2 5.1 0 2.8 2.3 5.1 5.2 5.1zm0-30.8c2.8 0 5.1-2.3 5.1-5.1 0-2.8-2.3-5.1-5.1-5.1-2.9 0-5.2 2.3-5.2 5.1 0 2.8 2.3 5.1 5.2 5.1zm0-30.8c2.8 0 5.1-2.3 5.1-5.1 0-2.8-2.3-5.1-5.1-5.1-2.9 0-5.2 2.3-5.2 5.1 0 2.8 2.3 5.1 5.2 5.1zm0-30.8c2.8 0 5.1-2.3 5.1-5.1 0-2.9-2.3-5.2-5.1-5.2-2.9 0-5.2 2.3-5.2 5.2 0 2.8 2.3 5.1 5.2 5.1zm30.8 92.4c2.8 0 5.1-2.3 5.1-5.1 0-2.8-2.3-5.1-5.1-5.1-2.9 0-5.2 2.3-5.2 5.1 0 2.8 2.3 5.1 5.2 5.1zm0-30.8c2.8 0 5.1-2.3 5.1-5.1 0-2.8-2.3-5.1-5.1-5.1-2.9 0-5.2 2.3-5.2 5.1 0 2.8 2.3 5.1 5.2 5.1zm0-30.8c2.8 0 5.1-2.3 5.1-5.1 0-2.8-2.3-5.1-5.1-5.1-2.9 0-5.2 2.3-5.2 5.1 0 2.8 2.3 5.1 5.2 5.1zm0-30.8c2.8 0 5.1-2.3 5.1-5.1 0-2.9-2.3-5.2-5.1-5.2-2.9 0-5.2 2.3-5.2 5.2 0 2.8 2.3 5.1 5.2 5.1zm30.8 92.4c2.8 0 5.1-2.3 5.1-5.1 0-2.8-2.3-5.1-5.1-5.1-2.9 0-5.2 2.3-5.2 5.1 0 2.8 2.3 5.1 5.2 5.1zm0-30.8c2.8 0 5.1-2.3 5.1-5.1 0-2.8-2.3-5.1-5.1-5.1-2.9 0-5.2 2.3-5.2 5.1 0 2.8 2.3 5.1 5.2 5.1zm0-30.8c2.8 0 5.1-2.3 5.1-5.1 0-2.8-2.3-5.1-5.1-5.1-2.9 0-5.2 2.3-5.2 5.1 0 2.8 2.3 5.1 5.2 5.1zm0-30.8c2.8 0 5.1-2.3 5.1-5.1 0-2.9-2.3-5.2-5.1-5.2-2.9 0-5.2 2.3-5.2 5.2 0 2.8 2.3 5.1 5.2 5.1zm-154.1 82.2c-2.8 0-5.1 2.3-5.1 5.1 0 2.8 2.3 5.1 5.1 5.1 2.9 0 5.2-2.3 5.2-5.1 0-2.8-2.3-5.1-5.2-5.1z"/>
		<path id="Shape-02 copy 2" fill-rule="evenodd" class="s2" d="m1524.7 985.1c2.9 0 5.2-2.3 5.2-5.1 0-2.8-2.3-5.1-5.2-5.1-2.8 0-5.1 2.3-5.1 5.1 0 2.8 2.3 5.1 5.1 5.1zm0-30.8c2.9 0 5.2-2.3 5.2-5.1 0-2.8-2.3-5.1-5.2-5.1-2.8 0-5.1 2.3-5.1 5.1 0 2.8 2.3 5.1 5.1 5.1zm0-30.8c2.9 0 5.2-2.3 5.2-5.1 0-2.9-2.3-5.2-5.2-5.2-2.8 0-5.1 2.3-5.1 5.2 0 2.8 2.3 5.1 5.1 5.1zm30.8 92.4c2.9 0 5.2-2.3 5.2-5.1 0-2.8-2.3-5.1-5.2-5.1-2.8 0-5.1 2.3-5.1 5.1 0 2.8 2.3 5.1 5.1 5.1zm0-30.8c2.9 0 5.2-2.3 5.2-5.1 0-2.8-2.3-5.1-5.2-5.1-2.8 0-5.1 2.3-5.1 5.1 0 2.8 2.3 5.1 5.1 5.1zm0-30.8c2.9 0 5.2-2.3 5.2-5.1 0-2.8-2.3-5.1-5.2-5.1-2.8 0-5.1 2.3-5.1 5.1 0 2.8 2.3 5.1 5.1 5.1zm0-30.8c2.9 0 5.2-2.3 5.2-5.1 0-2.9-2.3-5.2-5.2-5.2-2.8 0-5.1 2.3-5.1 5.2 0 2.8 2.3 5.1 5.1 5.1zm30.9 92.4c2.8 0 5.1-2.3 5.1-5.1 0-2.8-2.3-5.1-5.1-5.1-2.9 0-5.2 2.3-5.2 5.1 0 2.8 2.3 5.1 5.2 5.1zm0-30.8c2.8 0 5.1-2.3 5.1-5.1 0-2.8-2.3-5.1-5.1-5.1-2.9 0-5.2 2.3-5.2 5.1 0 2.8 2.3 5.1 5.2 5.1zm0-30.8c2.8 0 5.1-2.3 5.1-5.1 0-2.8-2.3-5.1-5.1-5.1-2.9 0-5.2 2.3-5.2 5.1 0 2.8 2.3 5.1 5.2 5.1zm0-30.8c2.8 0 5.1-2.3 5.1-5.1 0-2.9-2.3-5.2-5.1-5.2-2.9 0-5.2 2.3-5.2 5.2 0 2.8 2.3 5.1 5.2 5.1zm30.8 92.4c2.8 0 5.1-2.3 5.1-5.1 0-2.8-2.3-5.1-5.1-5.1-2.9 0-5.2 2.3-5.2 5.1 0 2.8 2.3 5.1 5.2 5.1zm0-30.8c2.8 0 5.1-2.3 5.1-5.1 0-2.8-2.3-5.1-5.1-5.1-2.9 0-5.2 2.3-5.2 5.1 0 2.8 2.3 5.1 5.2 5.1zm0-30.8c2.8 0 5.1-2.3 5.1-5.1 0-2.8-2.3-5.1-5.1-5.1-2.9 0-5.2 2.3-5.2 5.1 0 2.8 2.3 5.1 5.2 5.1zm0-30.8c2.8 0 5.1-2.3 5.1-5.1 0-2.9-2.3-5.2-5.1-5.2-2.9 0-5.2 2.3-5.2 5.2 0 2.8 2.3 5.1 5.2 5.1zm30.8 92.4c2.8 0 5.1-2.3 5.1-5.1 0-2.8-2.3-5.1-5.1-5.1-2.9 0-5.2 2.3-5.2 5.1 0 2.8 2.3 5.1 5.2 5.1zm0-30.8c2.8 0 5.1-2.3 5.1-5.1 0-2.8-2.3-5.1-5.1-5.1-2.9 0-5.2 2.3-5.2 5.1 0 2.8 2.3 5.1 5.2 5.1zm0-30.8c2.8 0 5.1-2.3 5.1-5.1 0-2.8-2.3-5.1-5.1-5.1-2.9 0-5.2 2.3-5.2 5.1 0 2.8 2.3 5.1 5.2 5.1zm0-30.8c2.8 0 5.1-2.3 5.1-5.1 0-2.9-2.3-5.2-5.1-5.2-2.9 0-5.2 2.3-5.2 5.2 0 2.8 2.3 5.1 5.2 5.1zm30.8 92.4c2.8 0 5.1-2.3 5.1-5.1 0-2.8-2.3-5.1-5.1-5.1-2.9 0-5.2 2.3-5.2 5.1 0 2.8 2.3 5.1 5.2 5.1zm0-30.8c2.8 0 5.1-2.3 5.1-5.1 0-2.8-2.3-5.1-5.1-5.1-2.9 0-5.2 2.3-5.2 5.1 0 2.8 2.3 5.1 5.2 5.1zm0-30.8c2.8 0 5.1-2.3 5.1-5.1 0-2.8-2.3-5.1-5.1-5.1-2.9 0-5.2 2.3-5.2 5.1 0 2.8 2.3 5.1 5.2 5.1zm0-30.8c2.8 0 5.1-2.3 5.1-5.1 0-2.9-2.3-5.2-5.1-5.2-2.9 0-5.2 2.3-5.2 5.2 0 2.8 2.3 5.1 5.2 5.1zm-154.1 82.2c-2.8 0-5.1 2.3-5.1 5.1 0 2.8 2.3 5.1 5.1 5.1 2.9 0 5.2-2.3 5.2-5.1 0-2.8-2.3-5.1-5.2-5.1z"/>
		<path id="Shape-02 copy 3" fill-rule="evenodd" class="s2" d="m1700.7 985.1c2.9 0 5.2-2.3 5.2-5.1 0-2.8-2.3-5.1-5.2-5.1-2.8 0-5.1 2.3-5.1 5.1 0 2.8 2.3 5.1 5.1 5.1zm0-30.8c2.9 0 5.2-2.3 5.2-5.1 0-2.8-2.3-5.1-5.2-5.1-2.8 0-5.1 2.3-5.1 5.1 0 2.8 2.3 5.1 5.1 5.1zm0-30.8c2.9 0 5.2-2.3 5.2-5.1 0-2.9-2.3-5.2-5.2-5.2-2.8 0-5.1 2.3-5.1 5.2 0 2.8 2.3 5.1 5.1 5.1zm30.8 92.4c2.9 0 5.2-2.3 5.2-5.1 0-2.8-2.3-5.1-5.2-5.1-2.8 0-5.1 2.3-5.1 5.1 0 2.8 2.3 5.1 5.1 5.1zm0-30.8c2.9 0 5.2-2.3 5.2-5.1 0-2.8-2.3-5.1-5.2-5.1-2.8 0-5.1 2.3-5.1 5.1 0 2.8 2.3 5.1 5.1 5.1zm0-30.8c2.9 0 5.2-2.3 5.2-5.1 0-2.8-2.3-5.1-5.2-5.1-2.8 0-5.1 2.3-5.1 5.1 0 2.8 2.3 5.1 5.1 5.1zm0-30.8c2.9 0 5.2-2.3 5.2-5.1 0-2.9-2.3-5.2-5.2-5.2-2.8 0-5.1 2.3-5.1 5.2 0 2.8 2.3 5.1 5.1 5.1zm30.9 92.4c2.8 0 5.1-2.3 5.1-5.1 0-2.8-2.3-5.1-5.1-5.1-2.9 0-5.2 2.3-5.2 5.1 0 2.8 2.3 5.1 5.2 5.1zm0-30.8c2.8 0 5.1-2.3 5.1-5.1 0-2.8-2.3-5.1-5.1-5.1-2.9 0-5.2 2.3-5.2 5.1 0 2.8 2.3 5.1 5.2 5.1zm0-30.8c2.8 0 5.1-2.3 5.1-5.1 0-2.8-2.3-5.1-5.1-5.1-2.9 0-5.2 2.3-5.2 5.1 0 2.8 2.3 5.1 5.2 5.1zm0-30.8c2.8 0 5.1-2.3 5.1-5.1 0-2.9-2.3-5.2-5.1-5.2-2.9 0-5.2 2.3-5.2 5.2 0 2.8 2.3 5.1 5.2 5.1zm30.8 92.4c2.8 0 5.1-2.3 5.1-5.1 0-2.8-2.3-5.1-5.1-5.1-2.9 0-5.2 2.3-5.2 5.1 0 2.8 2.3 5.1 5.2 5.1zm0-30.8c2.8 0 5.1-2.3 5.1-5.1 0-2.8-2.3-5.1-5.1-5.1-2.9 0-5.2 2.3-5.2 5.1 0 2.8 2.3 5.1 5.2 5.1zm0-30.8c2.8 0 5.1-2.3 5.1-5.1 0-2.8-2.3-5.1-5.1-5.1-2.9 0-5.2 2.3-5.2 5.1 0 2.8 2.3 5.1 5.2 5.1zm0-30.8c2.8 0 5.1-2.3 5.1-5.1 0-2.9-2.3-5.2-5.1-5.2-2.9 0-5.2 2.3-5.2 5.2 0 2.8 2.3 5.1 5.2 5.1zm30.8 92.4c2.8 0 5.1-2.3 5.1-5.1 0-2.8-2.3-5.1-5.1-5.1-2.9 0-5.2 2.3-5.2 5.1 0 2.8 2.3 5.1 5.2 5.1zm0-30.8c2.8 0 5.1-2.3 5.1-5.1 0-2.8-2.3-5.1-5.1-5.1-2.9 0-5.2 2.3-5.2 5.1 0 2.8 2.3 5.1 5.2 5.1zm0-30.8c2.8 0 5.1-2.3 5.1-5.1 0-2.8-2.3-5.1-5.1-5.1-2.9 0-5.2 2.3-5.2 5.1 0 2.8 2.3 5.1 5.2 5.1zm0-30.8c2.8 0 5.1-2.3 5.1-5.1 0-2.9-2.3-5.2-5.1-5.2-2.9 0-5.2 2.3-5.2 5.2 0 2.8 2.3 5.1 5.2 5.1zm30.8 92.4c2.8 0 5.1-2.3 5.1-5.1 0-2.8-2.3-5.1-5.1-5.1-2.9 0-5.2 2.3-5.2 5.1 0 2.8 2.3 5.1 5.2 5.1zm0-30.8c2.8 0 5.1-2.3 5.1-5.1 0-2.8-2.3-5.1-5.1-5.1-2.9 0-5.2 2.3-5.2 5.1 0 2.8 2.3 5.1 5.2 5.1zm0-30.8c2.8 0 5.1-2.3 5.1-5.1 0-2.8-2.3-5.1-5.1-5.1-2.9 0-5.2 2.3-5.2 5.1 0 2.8 2.3 5.1 5.2 5.1zm0-30.8c2.8 0 5.1-2.3 5.1-5.1 0-2.9-2.3-5.2-5.1-5.2-2.9 0-5.2 2.3-5.2 5.2 0 2.8 2.3 5.1 5.2 5.1zm-154.1 82.2c-2.8 0-5.1 2.3-5.1 5.1 0 2.8 2.3 5.1 5.1 5.1 2.9 0 5.2-2.3 5.2-5.1 0-2.8-2.3-5.1-5.2-5.1z"/>
		<path id="Shape-02 copy 4" fill-rule="evenodd" class="s2" d="m1700.7 985.1c2.9 0 5.2-2.3 5.2-5.1 0-2.8-2.3-5.1-5.2-5.1-2.8 0-5.1 2.3-5.1 5.1 0 2.8 2.3 5.1 5.1 5.1zm0-30.8c2.9 0 5.2-2.3 5.2-5.1 0-2.8-2.3-5.1-5.2-5.1-2.8 0-5.1 2.3-5.1 5.1 0 2.8 2.3 5.1 5.1 5.1zm0-30.8c2.9 0 5.2-2.3 5.2-5.1 0-2.9-2.3-5.2-5.2-5.2-2.8 0-5.1 2.3-5.1 5.2 0 2.8 2.3 5.1 5.1 5.1zm30.8 92.4c2.9 0 5.2-2.3 5.2-5.1 0-2.8-2.3-5.1-5.2-5.1-2.8 0-5.1 2.3-5.1 5.1 0 2.8 2.3 5.1 5.1 5.1zm0-30.8c2.9 0 5.2-2.3 5.2-5.1 0-2.8-2.3-5.1-5.2-5.1-2.8 0-5.1 2.3-5.1 5.1 0 2.8 2.3 5.1 5.1 5.1zm0-30.8c2.9 0 5.2-2.3 5.2-5.1 0-2.8-2.3-5.1-5.2-5.1-2.8 0-5.1 2.3-5.1 5.1 0 2.8 2.3 5.1 5.1 5.1zm0-30.8c2.9 0 5.2-2.3 5.2-5.1 0-2.9-2.3-5.2-5.2-5.2-2.8 0-5.1 2.3-5.1 5.2 0 2.8 2.3 5.1 5.1 5.1zm30.9 92.4c2.8 0 5.1-2.3 5.1-5.1 0-2.8-2.3-5.1-5.1-5.1-2.9 0-5.2 2.3-5.2 5.1 0 2.8 2.3 5.1 5.2 5.1zm0-30.8c2.8 0 5.1-2.3 5.1-5.1 0-2.8-2.3-5.1-5.1-5.1-2.9 0-5.2 2.3-5.2 5.1 0 2.8 2.3 5.1 5.2 5.1zm0-30.8c2.8 0 5.1-2.3 5.1-5.1 0-2.8-2.3-5.1-5.1-5.1-2.9 0-5.2 2.3-5.2 5.1 0 2.8 2.3 5.1 5.2 5.1zm0-30.8c2.8 0 5.1-2.3 5.1-5.1 0-2.9-2.3-5.2-5.1-5.2-2.9 0-5.2 2.3-5.2 5.2 0 2.8 2.3 5.1 5.2 5.1zm30.8 92.4c2.8 0 5.1-2.3 5.1-5.1 0-2.8-2.3-5.1-5.1-5.1-2.9 0-5.2 2.3-5.2 5.1 0 2.8 2.3 5.1 5.2 5.1zm0-30.8c2.8 0 5.1-2.3 5.1-5.1 0-2.8-2.3-5.1-5.1-5.1-2.9 0-5.2 2.3-5.2 5.1 0 2.8 2.3 5.1 5.2 5.1zm0-30.8c2.8 0 5.1-2.3 5.1-5.1 0-2.8-2.3-5.1-5.1-5.1-2.9 0-5.2 2.3-5.2 5.1 0 2.8 2.3 5.1 5.2 5.1zm0-30.8c2.8 0 5.1-2.3 5.1-5.1 0-2.9-2.3-5.2-5.1-5.2-2.9 0-5.2 2.3-5.2 5.2 0 2.8 2.3 5.1 5.2 5.1zm30.8 92.4c2.8 0 5.1-2.3 5.1-5.1 0-2.8-2.3-5.1-5.1-5.1-2.9 0-5.2 2.3-5.2 5.1 0 2.8 2.3 5.1 5.2 5.1zm0-30.8c2.8 0 5.1-2.3 5.1-5.1 0-2.8-2.3-5.1-5.1-5.1-2.9 0-5.2 2.3-5.2 5.1 0 2.8 2.3 5.1 5.2 5.1zm0-30.8c2.8 0 5.1-2.3 5.1-5.1 0-2.8-2.3-5.1-5.1-5.1-2.9 0-5.2 2.3-5.2 5.1 0 2.8 2.3 5.1 5.2 5.1zm0-30.8c2.8 0 5.1-2.3 5.1-5.1 0-2.9-2.3-5.2-5.1-5.2-2.9 0-5.2 2.3-5.2 5.2 0 2.8 2.3 5.1 5.2 5.1zm30.8 92.4c2.8 0 5.1-2.3 5.1-5.1 0-2.8-2.3-5.1-5.1-5.1-2.9 0-5.2 2.3-5.2 5.1 0 2.8 2.3 5.1 5.2 5.1zm0-30.8c2.8 0 5.1-2.3 5.1-5.1 0-2.8-2.3-5.1-5.1-5.1-2.9 0-5.2 2.3-5.2 5.1 0 2.8 2.3 5.1 5.2 5.1zm0-30.8c2.8 0 5.1-2.3 5.1-5.1 0-2.8-2.3-5.1-5.1-5.1-2.9 0-5.2 2.3-5.2 5.1 0 2.8 2.3 5.1 5.2 5.1zm0-30.8c2.8 0 5.1-2.3 5.1-5.1 0-2.9-2.3-5.2-5.1-5.2-2.9 0-5.2 2.3-5.2 5.2 0 2.8 2.3 5.1 5.2 5.1zm-154.1 82.2c-2.8 0-5.1 2.3-5.1 5.1 0 2.8 2.3 5.1 5.1 5.1 2.9 0 5.2-2.3 5.2-5.1 0-2.8-2.3-5.1-5.2-5.1z"/>
		<path id="Shape-02 copy 5" fill-rule="evenodd" class="s2" d="m1523.7 867.1c2.9 0 5.2-2.3 5.2-5.1 0-2.8-2.3-5.1-5.2-5.1-2.8 0-5.1 2.3-5.1 5.1 0 2.8 2.3 5.1 5.1 5.1zm0-30.8c2.9 0 5.2-2.3 5.2-5.1 0-2.8-2.3-5.1-5.2-5.1-2.8 0-5.1 2.3-5.1 5.1 0 2.8 2.3 5.1 5.1 5.1zm0-30.8c2.9 0 5.2-2.3 5.2-5.1 0-2.9-2.3-5.2-5.2-5.2-2.8 0-5.1 2.3-5.1 5.2 0 2.8 2.3 5.1 5.1 5.1zm30.8 92.4c2.9 0 5.2-2.3 5.2-5.1 0-2.8-2.3-5.1-5.2-5.1-2.8 0-5.1 2.3-5.1 5.1 0 2.8 2.3 5.1 5.1 5.1zm0-30.8c2.9 0 5.2-2.3 5.2-5.1 0-2.8-2.3-5.1-5.2-5.1-2.8 0-5.1 2.3-5.1 5.1 0 2.8 2.3 5.1 5.1 5.1zm0-30.8c2.9 0 5.2-2.3 5.2-5.1 0-2.8-2.3-5.1-5.2-5.1-2.8 0-5.1 2.3-5.1 5.1 0 2.8 2.3 5.1 5.1 5.1zm0-30.8c2.9 0 5.2-2.3 5.2-5.1 0-2.9-2.3-5.2-5.2-5.2-2.8 0-5.1 2.3-5.1 5.2 0 2.8 2.3 5.1 5.1 5.1zm30.9 92.4c2.8 0 5.1-2.3 5.1-5.1 0-2.8-2.3-5.1-5.1-5.1-2.9 0-5.2 2.3-5.2 5.1 0 2.8 2.3 5.1 5.2 5.1zm0-30.8c2.8 0 5.1-2.3 5.1-5.1 0-2.8-2.3-5.1-5.1-5.1-2.9 0-5.2 2.3-5.2 5.1 0 2.8 2.3 5.1 5.2 5.1zm0-30.8c2.8 0 5.1-2.3 5.1-5.1 0-2.8-2.3-5.1-5.1-5.1-2.9 0-5.2 2.3-5.2 5.1 0 2.8 2.3 5.1 5.2 5.1zm0-30.8c2.8 0 5.1-2.3 5.1-5.1 0-2.9-2.3-5.2-5.1-5.2-2.9 0-5.2 2.3-5.2 5.2 0 2.8 2.3 5.1 5.2 5.1zm30.8 92.4c2.8 0 5.1-2.3 5.1-5.1 0-2.8-2.3-5.1-5.1-5.1-2.9 0-5.2 2.3-5.2 5.1 0 2.8 2.3 5.1 5.2 5.1zm0-30.8c2.8 0 5.1-2.3 5.1-5.1 0-2.8-2.3-5.1-5.1-5.1-2.9 0-5.2 2.3-5.2 5.1 0 2.8 2.3 5.1 5.2 5.1zm0-30.8c2.8 0 5.1-2.3 5.1-5.1 0-2.8-2.3-5.1-5.1-5.1-2.9 0-5.2 2.3-5.2 5.1 0 2.8 2.3 5.1 5.2 5.1zm0-30.8c2.8 0 5.1-2.3 5.1-5.1 0-2.9-2.3-5.2-5.1-5.2-2.9 0-5.2 2.3-5.2 5.2 0 2.8 2.3 5.1 5.2 5.1zm30.8 92.4c2.8 0 5.1-2.3 5.1-5.1 0-2.8-2.3-5.1-5.1-5.1-2.9 0-5.2 2.3-5.2 5.1 0 2.8 2.3 5.1 5.2 5.1zm0-30.8c2.8 0 5.1-2.3 5.1-5.1 0-2.8-2.3-5.1-5.1-5.1-2.9 0-5.2 2.3-5.2 5.1 0 2.8 2.3 5.1 5.2 5.1zm0-30.8c2.8 0 5.1-2.3 5.1-5.1 0-2.8-2.3-5.1-5.1-5.1-2.9 0-5.2 2.3-5.2 5.1 0 2.8 2.3 5.1 5.2 5.1zm0-30.8c2.8 0 5.1-2.3 5.1-5.1 0-2.9-2.3-5.2-5.1-5.2-2.9 0-5.2 2.3-5.2 5.2 0 2.8 2.3 5.1 5.2 5.1zm30.8 92.4c2.8 0 5.1-2.3 5.1-5.1 0-2.8-2.3-5.1-5.1-5.1-2.9 0-5.2 2.3-5.2 5.1 0 2.8 2.3 5.1 5.2 5.1zm0-30.8c2.8 0 5.1-2.3 5.1-5.1 0-2.8-2.3-5.1-5.1-5.1-2.9 0-5.2 2.3-5.2 5.1 0 2.8 2.3 5.1 5.2 5.1zm0-30.8c2.8 0 5.1-2.3 5.1-5.1 0-2.8-2.3-5.1-5.1-5.1-2.9 0-5.2 2.3-5.2 5.1 0 2.8 2.3 5.1 5.2 5.1zm0-30.8c2.8 0 5.1-2.3 5.1-5.1 0-2.9-2.3-5.2-5.1-5.2-2.9 0-5.2 2.3-5.2 5.2 0 2.8 2.3 5.1 5.2 5.1zm-154.1 82.2c-2.8 0-5.1 2.3-5.1 5.1 0 2.8 2.3 5.1 5.1 5.1 2.9 0 5.2-2.3 5.2-5.1 0-2.8-2.3-5.1-5.2-5.1z"/>
		<path id="Shape-01" fill-rule="evenodd" class="s1" d="m1762.9 52.8l-2.3-2.3c-0.6-0.6-1.7-0.6-2.3 0-0.7 0.6-0.7 1.7 0 2.3l2.3 2.3-2.3 2.3c-0.7 0.7-0.7 1.7 0 2.4 0.6 0.6 1.7 0.6 2.3 0l2.3-2.4 2.3 2.4c0.7 0.6 1.7 0.6 2.3 0 0.7-0.7 0.7-1.7 0-2.4l-2.3-2.3 2.3-2.3c0.7-0.6 0.7-1.7 0-2.3-0.6-0.6-1.6-0.6-2.3 0zm15.8-2.3c-0.6 0.6-0.6 1.7 0 2.3l2.3 2.3-2.3 2.3c-0.6 0.7-0.6 1.7 0 2.3 0.6 0.7 1.7 0.7 2.3 0l2.3-2.3 2.4 2.3c0.6 0.7 1.6 0.7 2.3 0 0.6-0.6 0.6-1.6 0-2.3l-2.3-2.3 2.3-2.3c0.6-0.6 0.6-1.7 0-2.3-0.7-0.7-1.7-0.7-2.3 0l-2.4 2.3-2.3-2.3c-0.6-0.7-1.7-0.7-2.3 0zm20.4 0c-0.6 0.6-0.6 1.7 0 2.3l2.3 2.3-2.3 2.3c-0.6 0.7-0.6 1.7 0 2.3 0.7 0.7 1.7 0.7 2.3 0l2.3-2.3 2.4 2.3c0.6 0.7 1.6 0.7 2.3 0 0.6-0.6 0.6-1.6 0-2.3l-2.3-2.3 2.3-2.3c0.6-0.6 0.6-1.7 0-2.3-0.7-0.7-1.7-0.7-2.3 0l-2.4 2.3-2.3-2.3c-0.6-0.7-1.6-0.7-2.3 0zm20.4 0c-0.6 0.6-0.6 1.7 0 2.3l2.3 2.3-2.3 2.3c-0.6 0.7-0.6 1.7 0 2.3 0.7 0.7 1.7 0.7 2.3 0l2.4-2.3 2.3 2.3c0.6 0.7 1.6 0.7 2.3 0 0.6-0.6 0.6-1.6 0-2.3l-2.3-2.3 2.3-2.3c0.6-0.6 0.6-1.7 0-2.3-0.7-0.7-1.7-0.7-2.3 0l-2.3 2.3-2.4-2.3c-0.6-0.7-1.6-0.7-2.3 0zm20.4 0c-0.6 0.6-0.6 1.7 0 2.3l2.3 2.3-2.3 2.3c-0.6 0.7-0.6 1.7 0 2.3 0.7 0.7 1.7 0.7 2.3 0l2.4-2.3 2.3 2.3c0.6 0.7 1.6 0.7 2.3 0 0.6-0.6 0.6-1.6 0-2.3l-2.3-2.3 2.3-2.3c0.6-0.6 0.6-1.7 0-2.3-0.7-0.7-1.7-0.7-2.3 0l-2.3 2.3-2.4-2.3c-0.6-0.7-1.6-0.7-2.3 0zm20.4 0c-0.6 0.6-0.6 1.7 0 2.3l2.4 2.3-2.4 2.3c-0.6 0.7-0.6 1.7 0 2.3 0.7 0.7 1.7 0.7 2.4 0l2.3-2.3 2.3 2.3c0.6 0.7 1.7 0.7 2.3 0 0.6-0.6 0.6-1.6 0-2.3l-2.3-2.3 2.3-2.3c0.6-0.6 0.6-1.7 0-2.3-0.6-0.7-1.7-0.7-2.3 0l-2.3 2.3-2.3-2.3c-0.7-0.7-1.7-0.7-2.4 0zm-81.6 20.4c-0.6 0.6-0.6 1.7 0 2.3l2.3 2.3-2.3 2.3c-0.6 0.7-0.6 1.7 0 2.4 0.6 0.6 1.7 0.6 2.3 0l2.3-2.4 2.4 2.4c0.6 0.6 1.6 0.6 2.3 0 0.6-0.7 0.6-1.7 0-2.4l-2.3-2.3 2.3-2.3c0.6-0.6 0.6-1.7 0-2.3-0.7-0.6-1.7-0.6-2.3 0l-2.4 2.3-2.3-2.3c-0.6-0.6-1.7-0.6-2.3 0zm20.4 0c-0.6 0.6-0.6 1.7 0 2.3l2.3 2.3-2.3 2.3c-0.6 0.7-0.6 1.7 0 2.4 0.7 0.6 1.7 0.6 2.3 0l2.3-2.4 2.4 2.4c0.6 0.6 1.6 0.6 2.3 0 0.6-0.7 0.6-1.7 0-2.4l-2.3-2.3 2.3-2.3c0.6-0.6 0.6-1.7 0-2.3-0.7-0.6-1.7-0.6-2.3 0l-2.4 2.3-2.3-2.3c-0.6-0.6-1.6-0.6-2.3 0zm20.4 0c-0.6 0.6-0.6 1.7 0 2.3l2.3 2.3-2.3 2.3c-0.6 0.7-0.6 1.7 0 2.4 0.7 0.6 1.7 0.6 2.3 0l2.4-2.4 2.3 2.4c0.6 0.6 1.6 0.6 2.3 0 0.6-0.7 0.6-1.7 0-2.4l-2.3-2.3 2.3-2.3c0.6-0.6 0.6-1.7 0-2.3-0.7-0.6-1.7-0.6-2.3 0l-2.3 2.3-2.4-2.3c-0.6-0.6-1.6-0.6-2.3 0zm20.4 0c-0.6 0.6-0.6 1.7 0 2.3l2.3 2.3-2.3 2.3c-0.6 0.7-0.6 1.7 0 2.4 0.7 0.6 1.7 0.6 2.3 0l2.4-2.4 2.3 2.4c0.6 0.6 1.6 0.6 2.3 0 0.6-0.7 0.6-1.7 0-2.4l-2.3-2.3 2.3-2.3c0.6-0.6 0.6-1.7 0-2.3-0.7-0.6-1.7-0.6-2.3 0l-2.3 2.3-2.4-2.3c-0.6-0.6-1.6-0.6-2.3 0zm20.4 0c-0.6 0.6-0.6 1.7 0 2.3l2.4 2.3-2.4 2.3c-0.6 0.7-0.6 1.7 0 2.4 0.7 0.6 1.7 0.6 2.4 0l2.3-2.4 2.3 2.4c0.6 0.6 1.7 0.6 2.3 0 0.6-0.7 0.6-1.7 0-2.4l-2.3-2.3 2.3-2.3c0.6-0.6 0.6-1.7 0-2.3-0.6-0.6-1.7-0.6-2.3 0l-2.3 2.3-2.3-2.3c-0.7-0.6-1.7-0.6-2.4 0zm-61.2 20.4c-0.6 0.6-0.6 1.7 0 2.3l2.3 2.3-2.3 2.3c-0.6 0.7-0.6 1.7 0 2.4 0.7 0.6 1.7 0.6 2.3 0l2.3-2.4 2.4 2.4c0.6 0.6 1.6 0.6 2.3 0 0.6-0.7 0.6-1.7 0-2.4l-2.3-2.3 2.3-2.3c0.6-0.6 0.6-1.7 0-2.3-0.7-0.6-1.7-0.6-2.3 0l-2.4 2.3-2.3-2.3c-0.6-0.6-1.6-0.6-2.3 0zm20.4 0c-0.6 0.6-0.6 1.7 0 2.3l2.3 2.3-2.3 2.3c-0.6 0.7-0.6 1.7 0 2.4 0.7 0.6 1.7 0.6 2.3 0l2.4-2.4 2.3 2.4c0.6 0.6 1.6 0.6 2.3 0 0.6-0.7 0.6-1.7 0-2.4l-2.3-2.3 2.3-2.3c0.6-0.6 0.6-1.7 0-2.3-0.7-0.6-1.7-0.6-2.3 0l-2.3 2.3-2.4-2.3c-0.6-0.6-1.6-0.6-2.3 0zm20.4 0c-0.6 0.6-0.6 1.7 0 2.3l2.3 2.3-2.3 2.3c-0.6 0.7-0.6 1.7 0 2.4 0.7 0.6 1.7 0.6 2.3 0l2.4-2.4 2.3 2.4c0.6 0.6 1.6 0.6 2.3 0 0.6-0.7 0.6-1.7 0-2.4l-2.3-2.3 2.3-2.3c0.6-0.6 0.6-1.7 0-2.3-0.7-0.6-1.7-0.6-2.3 0l-2.3 2.3-2.4-2.3c-0.6-0.6-1.6-0.6-2.3 0zm20.4 0c-0.6 0.6-0.6 1.7 0 2.3l2.4 2.3-2.4 2.3c-0.6 0.7-0.6 1.7 0 2.4 0.7 0.6 1.7 0.6 2.4 0l2.3-2.4 2.3 2.4c0.6 0.6 1.7 0.6 2.3 0 0.6-0.7 0.6-1.7 0-2.4l-2.3-2.3 2.3-2.3c0.6-0.6 0.6-1.7 0-2.3-0.6-0.6-1.7-0.6-2.3 0l-2.3 2.3-2.3-2.3c-0.7-0.6-1.7-0.6-2.4 0zm-40.8 20.4c-0.6 0.6-0.6 1.7 0 2.3l2.3 2.3-2.3 2.4c-0.6 0.6-0.6 1.6 0 2.3 0.7 0.6 1.7 0.6 2.3 0l2.4-2.3 2.3 2.3c0.6 0.6 1.6 0.6 2.3 0 0.6-0.7 0.6-1.7 0-2.3l-2.3-2.4 2.3-2.3c0.6-0.6 0.6-1.7 0-2.3-0.7-0.6-1.7-0.6-2.3 0l-2.3 2.3-2.4-2.3c-0.6-0.6-1.6-0.6-2.3 0zm20.4 0c-0.6 0.6-0.6 1.7 0 2.3l2.3 2.3-2.3 2.4c-0.6 0.6-0.6 1.6 0 2.3 0.7 0.6 1.7 0.6 2.3 0l2.4-2.3 2.3 2.3c0.6 0.6 1.6 0.6 2.3 0 0.6-0.7 0.6-1.7 0-2.3l-2.3-2.4 2.3-2.3c0.6-0.6 0.6-1.7 0-2.3-0.7-0.6-1.7-0.6-2.3 0l-2.3 2.3-2.4-2.3c-0.6-0.6-1.6-0.6-2.3 0zm20.4 0c-0.6 0.6-0.6 1.7 0 2.3l2.4 2.3-2.4 2.4c-0.6 0.6-0.6 1.6 0 2.3 0.7 0.6 1.7 0.6 2.4 0l2.3-2.3 2.3 2.3c0.6 0.6 1.7 0.6 2.3 0 0.6-0.7 0.6-1.7 0-2.3l-2.3-2.4 2.3-2.3c0.6-0.6 0.6-1.7 0-2.3-0.6-0.6-1.7-0.6-2.3 0l-2.3 2.3-2.3-2.3c-0.7-0.6-1.7-0.6-2.4 0zm-20.4 20.4c-0.6 0.7-0.6 1.7 0 2.3l2.3 2.3-2.3 2.4c-0.6 0.6-0.6 1.6 0 2.3 0.7 0.6 1.7 0.6 2.3 0l2.4-2.3 2.3 2.3c0.6 0.6 1.6 0.6 2.3 0 0.6-0.7 0.6-1.7 0-2.3l-2.3-2.4 2.3-2.3c0.6-0.6 0.6-1.6 0-2.3-0.7-0.6-1.7-0.6-2.3 0l-2.3 2.3-2.4-2.3c-0.6-0.6-1.6-0.6-2.3 0zm20.4 0c-0.6 0.7-0.6 1.7 0 2.3l2.4 2.3-2.4 2.4c-0.6 0.6-0.6 1.6 0 2.3 0.7 0.6 1.7 0.6 2.4 0l2.3-2.3 2.3 2.3c0.6 0.6 1.7 0.6 2.3 0 0.6-0.7 0.6-1.7 0-2.3l-2.3-2.4 2.3-2.3c0.6-0.6 0.6-1.6 0-2.3-0.6-0.6-1.7-0.6-2.3 0l-2.3 2.3-2.3-2.3c-0.7-0.6-1.7-0.6-2.4 0zm0 20.4c-0.6 0.7-0.6 1.7 0 2.3l2.4 2.4-2.4 2.3c-0.6 0.6-0.6 1.6 0 2.3 0.7 0.6 1.7 0.6 2.4 0l2.3-2.3 2.3 2.3c0.6 0.6 1.7 0.6 2.3 0 0.6-0.7 0.6-1.7 0-2.3l-2.3-2.3 2.3-2.4c0.6-0.6 0.6-1.6 0-2.3-0.6-0.6-1.7-0.6-2.3 0l-2.3 2.3-2.3-2.3c-0.7-0.6-1.7-0.6-2.4 0z"/>
	</g>
	<g id="Tag-Line-Text">
		<path id="Arrow-Shape" fill-rule="evenodd" class="s1" d="m549.4 760.2q2.2-6.4 4.3-10.7 2.2-4.3 3.3-4.1 1.3 0.4 3.6 10.2 1.4 4.9 6.1 20.9 4.7 16.1 9.3 32.1 4.6 16 5.9 21l2.7 9.5 9.2 1.1q8.9 1.2 11.4 0.3 1.8-0.6 8.7-10.6 7-10 6.5-11.2-0.3-0.9-11.8-16.7-9.1-11.9-22.6-32.3-13.5-20.4-16.3-26.4-2.2-4.3-1.5-5.3 0.3-0.7 17.4-0.7l17 0.3 1.7-4.8q2.3-6.1 1.4-8.5-0.9-2.4-6.7-5.3-6.5-3.5-13.6-8-8.3-5.6-22-12.1-13.6-6.4-15.6-5.7-1.8 0.7-2.9 2.5-1.2 1.8-1.9 5.1-0.7 3.3-1.2 8.7-0.1 0.8-0.7 8.6-0.6 7.8-1.2 14.7-0.5 6.9-0.9 15.1-0.5 8.2-0.6 13.9 0 5.6 0.3 7.1 0.3 0.7 2.6 1.5 4.4 1.7 8.1-10.2zm-3.1-58.4q0.8-0.9 11.1 6.5 10.9 7.7 29.4 21 1.3 0.9 1.5 1.4 1 2.7-21.1 1.4-7.6-0.5-10 1-2.3 1.6-4.7 9.3-1.1 3.2-2.5 6.7-1.3 3.4-2.7 5.9-1.3 2.4-2.4 4.1-1.1 1.6-1.8 1.4-1.1-0.2-1.2-4.6 0-4.4 0.7-17.9 2-34.2 3.7-36.2zm17.9 50.7q0.2-0.5 0.4-0.5 1.6-0.6 8.7 14.1 4.7 10.2 17.7 36.9 11.8 23.7 12.7 27.2 0.6 2.8 0.1 3.4-0.4 0.7-3.3 1.7-3.8 1.2-7.6 0.3-3.9-0.9-5.8-3.5-1.7-2.4-4.1-10.6-0.6-2.3-3.4-11.9-2.9-9.5-4.3-14.6-12.2-40.9-11.1-42.5zm22.5 24.5q3 5.5 9.5 14.6 17.2 24.4 18.1 26.9 0.8 2.1-1 5.6-1.1 2.4-1.9 2.8-0.7 0.4-2-0.4-1.5-0.7-5-6.3-3.6-5.7-7.5-13.4-3.9-7.8-7.4-15.4-3.6-7.7-5.6-13.1-1.9-5.5-1-5.8 1-0.4 3.8 4.5zm-1.7-61.7q15.2 9.3 15.7 10.7 1.7 4.7-6.2 0.9-10.8-5.6-20.4-13.8-2-1.7-3.2-2.7-3.7-3.5-2.1-4 1.1-0.4 16.2 8.9z"/>
		<text id="Are You Looking ?.." style="transform: matrix(1.077,0,0,1.077,451,883.959)" >
			<tspan x="67" y="40.9" class="t3" dx="0" >A</tspan><tspan  y="40.9" class="t3" dx="0" >r</tspan><tspan  y="40.9" class="t3" dx="0" >e</tspan><tspan  y="40.9" class="t3" dx="0" > </tspan><tspan  y="40.9" class="t3" dx="0" >Y</tspan><tspan  y="40.9" class="t3" dx="0" >o</tspan><tspan  y="40.9" class="t3" dx="0" >u</tspan><tspan  y="40.9" class="t3" dx="0" > </tspan>
			<tspan x="21.2" y="92.9" class="t3" dx="0" >L</tspan><tspan  y="92.9" class="t3" dx="0" >o</tspan><tspan  y="92.9" class="t3" dx="0" >o</tspan><tspan  y="92.9" class="t3" dx="0" >k</tspan><tspan  y="92.9" class="t3" dx="0" >i</tspan><tspan  y="92.9" class="t3" dx="0" >n</tspan><tspan  y="92.9" class="t3" dx="0" >g</tspan><tspan  y="92.9" class="t3" dx="0" > </tspan><tspan  y="92.9" class="t3" dx="0" >?</tspan><tspan  y="92.9" class="t3" dx="0" >.</tspan><tspan  y="92.9" class="t3" dx="0" >.</tspan><tspan  y="92.9" class="t3" dx="0" >
</tspan>
		</text>
	</g>
	<g id="Button">
		<path id="BG" class="s2" d="m1302 366h130c13.8 0 25 11.2 25 25 0 13.8-11.2 25-25 25h-130c-13.8 0-25-11.2-25-25 0-13.8 11.2-25 25-25z"/>
		<text id="many more" style="transform: matrix(1,0,0,1,1368,395)" >
			<tspan x="-60.7" y="0" class="t4">M</tspan><tspan  y="0" class="t4">A</tspan><tspan  y="0" class="t4">N</tspan><tspan  y="0" class="t4">Y</tspan><tspan  y="0" class="t4"> </tspan><tspan  y="0" class="t4">M</tspan><tspan  y="0" class="t4">O</tspan><tspan  y="0" class="t4">R</tspan><tspan  y="0" class="t4">E
</tspan>
		</text>
	</g>
	<g id="Body-Text">
		<text id="Stock Management System, Financi" style="transform: matrix(1.569,0,0,1.571,1063,169)" >
			<tspan x="14.5" y="10.4" class="t5">Stock Management System, Financial Management </tspan>
			<tspan x="35.5" y="29.5" class="t5">System, Payment Management System, Asset </tspan>
			<tspan x="4.5" y="48.6" class="t5">Management System , Human Resource Management </tspan>
			<tspan x="23.4" y="67.7" class="t5">System, Document Management System, Project </tspan>
			<tspan x="21.4" y="86.8" class="t5">Management System, Lead Management System, </tspan>
			<tspan x="135.9" y="105.9" class="t5">Custom Software
</tspan>
		</text>
	</g>
	<g id="Text">
		<path id="BG" class="s2" d="m306.5 650.5l473-83.4c6.1-1.1 11 3 11 9v33c0 6.1-4.9 11.9-11 13l-473 83.4c-6.1 1-11-3-11-9.1v-33c0-6.1 4.9-11.9 11-12.9z"/>
		<text id="all Solutions for business" style="transform: matrix(1.078,-0.19,0,1.078,541.932,645.669)" >
			<tspan x="-180.2" y="0" class="t6">A</tspan><tspan  y="0" class="t6">L</tspan><tspan  y="0" class="t6">L</tspan><tspan  y="0" class="t6"> </tspan><tspan  y="0" class="t6">S</tspan><tspan  y="0" class="t6">O</tspan><tspan  y="0" class="t6">L</tspan><tspan  y="0" class="t6">U</tspan><tspan  y="0" class="t6">T</tspan><tspan  y="0" class="t6">I</tspan><tspan  y="0" class="t6">O</tspan><tspan  y="0" class="t6">N</tspan><tspan  y="0" class="t6">S</tspan><tspan  y="0" class="t6"> </tspan><tspan  y="0" class="t6">F</tspan><tspan  y="0" class="t6">O</tspan><tspan  y="0" class="t6">R</tspan><tspan  y="0" class="t6"> </tspan><tspan  y="0" class="t6">B</tspan><tspan  y="0" class="t6">U</tspan><tspan  y="0" class="t6">S</tspan><tspan  y="0" class="t6">I</tspan><tspan  y="0" class="t6">N</tspan><tspan  y="0" class="t6">E</tspan><tspan  y="0" class="t6">S</tspan><tspan  y="0" class="t6">S
</tspan>
		</text>
		<path id="Shape 1" class="s7" d="m251.5 637.1l583-102.8"/>
		<text id="COMPANY" style="transform: matrix(1.419,-0.25,0,1.419,542.523,562.515)" >
			<tspan x="-195.8" y="0" class="t8">COMPANY
</tspan>
		</text>
		<text id="Development" style="transform: matrix(.994,-0.183,0,1.04,561.516,459.973)" >
			<tspan x="-410.6" y="0" class="t9">D</tspan><tspan  y="0" class="t9">E</tspan><tspan  y="0" class="t9">V</tspan><tspan  y="0" class="t9">E</tspan><tspan  y="0" class="t9">L</tspan><tspan  y="0" class="t9">O</tspan><tspan  y="0" class="t9">P</tspan><tspan  y="0" class="t9">M</tspan><tspan  y="0" class="t9">E</tspan><tspan  y="0" class="t9">N</tspan><tspan  y="0" class="t9">T
</tspan>
		</text>
		<text id="software" style="transform: matrix(1.222,-0.215,0,1.222,518.378,363.73)" >
			<tspan x="-254.5" y="0" class="t10">S</tspan><tspan  y="0" class="t10">O</tspan><tspan  y="0" class="t10">F</tspan><tspan  y="0" class="t10">T</tspan><tspan  y="0" class="t10">W</tspan><tspan  y="0" class="t10">A</tspan><tspan  y="0" class="t10">R</tspan><tspan  y="0" class="t10">E
</tspan>
		</text>
	</g>
</svg>